<svg width="24" height="24" viewBox="0 0 24 24" fill="none" xmlns="http://www.w3.org/2000/svg">
<g clip-path="url(#clip0_653_182)">
<g filter="url(#filter0_d_653_182)">
<path d="M14.64 3.48017C14.82 3.48017 15 3.48017 15.36 3.48017V6.18017C15.18 6.18017 14.82 6.18017 14.46 6.18017C14.1 6.18017 13.74 6.18017 13.56 6.36017C13.38 6.54017 13.38 6.72017 13.38 7.14017C13.38 7.50017 13.38 7.74017 13.38 8.10017H15.36V10.3802H13.38V20.2802H10.32V10.3202H8.70001V8.04017H10.32V7.26017C10.32 5.94017 10.5 4.98017 10.86 4.56017C11.4 3.78017 12.48 3.42017 14.1 3.42017C14.28 3.48017 14.46 3.48017 14.64 3.48017Z" fill="#111111"/>
</g>
</g>
<defs>
<filter id="filter0_d_653_182" x="4.70001" y="3.42017" width="14.66" height="24.8601" filterUnits="userSpaceOnUse" color-interpolation-filters="sRGB">
<feFlood flood-opacity="0" result="BackgroundImageFix"/>
<feColorMatrix in="SourceAlpha" type="matrix" values="0 0 0 0 0 0 0 0 0 0 0 0 0 0 0 0 0 0 127 0" result="hardAlpha"/>
<feOffset dy="4"/>
<feGaussianBlur stdDeviation="2"/>
<feComposite in2="hardAlpha" operator="out"/>
<feColorMatrix type="matrix" values="0 0 0 0 0 0 0 0 0 0 0 0 0 0 0 0 0 0 0.25 0"/>
<feBlend mode="normal" in2="BackgroundImageFix" result="effect1_dropShadow_653_182"/>
<feBlend mode="normal" in="SourceGraphic" in2="effect1_dropShadow_653_182" result="shape"/>
</filter>
<clipPath id="clip0_653_182">
<rect width="24" height="24" fill="white"/>
</clipPath>
</defs>
</svg>
